<svg width="80" height="80" viewBox="0 0 80 80" fill="none" xmlns="http://www.w3.org/2000/svg">
<g id="icon-2">
<circle id="Ellipse-2" cx="40" cy="40" r="40" fill="#E5F1FF"/>
<g id="chat-smile">
<path id="Path_209" opacity="0.3" fill-rule="evenodd" clip-rule="evenodd" d="M26.683 45.3701L23.21 56.6581L34.498 53.1851L26.683 45.3701Z" fill="#377DFF"/>
<path id="Path_210" fill-rule="evenodd" clip-rule="evenodd" d="M40.577 22.793C50.1685 22.793 57.944 30.5684 57.944 40.16C57.944 49.7515 50.1685 57.527 40.577 57.527C30.9854 57.527 23.21 49.7515 23.21 40.16C23.21 30.5684 30.9854 22.793 40.577 22.793H40.577ZM30.448 42.86C33.07 46.793 36.488 48.843 40.577 48.843C44.666 48.843 48.083 46.793 50.71 42.86C51.0665 42.3438 51.117 41.6754 50.8421 41.1115C50.5672 40.5476 50.0095 40.1758 49.3832 40.1388C48.757 40.1018 48.1594 40.4054 47.82 40.933C45.811 43.947 43.44 45.37 40.582 45.37C37.724 45.37 35.353 43.947 33.344 40.933C33.0045 40.4054 32.407 40.1018 31.7807 40.1388C31.1544 40.1758 30.5968 40.5476 30.3219 41.1115C30.0469 41.6754 30.0974 42.3438 30.454 42.86L30.448 42.86Z" fill="#377DFF"/>
</g>
</g>
</svg>
