<svg width="80" height="80" viewBox="0 0 80 80" fill="none" xmlns="http://www.w3.org/2000/svg">
<g id="icon-4">
<circle id="Ellipse-4" cx="40" cy="40" r="40" fill="#FFF2D8"/>
<g id="star">
<path id="Path_204" fill-rule="evenodd" clip-rule="evenodd" d="M40.416 50.7921L32.786 54.8031C32.1567 55.1337 31.3943 55.0785 30.8192 54.6607C30.2441 54.2428 29.956 53.5348 30.076 52.8341L31.533 44.3341L25.358 38.3211C24.8489 37.8244 24.666 37.0816 24.8864 36.4053C25.1067 35.729 25.692 35.2366 26.396 35.1351L34.926 33.8961L38.741 26.1651C39.0558 25.5276 39.7051 25.124 40.416 25.124C41.127 25.124 41.7763 25.5276 42.091 26.1651L45.906 33.8951L54.436 35.1341C55.1395 35.2365 55.7239 35.7293 55.9436 36.4055C56.1632 37.0816 55.9801 37.8238 55.471 38.3201L49.299 44.3371L50.756 52.8371C50.876 53.5378 50.588 54.2458 50.0129 54.6637C49.4378 55.0815 48.6753 55.1367 48.046 54.8061L40.416 50.7921Z" fill="#FFBE3D"/>
</g>
</g>
</svg>
