<svg width="80" height="80" viewBox="0 0 80 80" fill="none" xmlns="http://www.w3.org/2000/svg">
<g id="icon-3">
<circle id="Ellipse-3" cx="40" cy="40" r="40" fill="#FFE3DE"/>
<g id="pictures-1">
<path id="Path_205" opacity="0.3" fill-rule="evenodd" clip-rule="evenodd" d="M25.0461 54.8179H54.4121C55.843 54.8179 57.0031 53.6579 57.0031 52.2269V33.2269C57.0031 31.7959 55.843 30.6359 54.4121 30.6359H36.2741L31.8551 26.2109C31.3682 25.724 30.7076 25.4509 30.0191 25.4519H25.0461C23.6151 25.4519 22.4551 26.6119 22.4551 28.0429V52.2259C22.4547 52.913 22.7275 53.5723 23.2134 54.0585C23.6993 54.5447 24.3585 54.8178 25.0458 54.8179H25.0461Z" fill="#FF715B"/>
<path id="Path_206" opacity="0.3" fill-rule="evenodd" clip-rule="evenodd" d="M25.9099 51.3629L36.2739 37.5439L46.6389 51.3629H25.9099Z" fill="#FF715B"/>
<path id="Path_207" fill-rule="evenodd" clip-rule="evenodd" d="M38.001 51.3631L44.911 42.7261L51.821 51.3631L38.001 51.3631Z" fill="#FF715B"/>
<path id="Path_208" opacity="0.3" fill-rule="evenodd" clip-rule="evenodd" d="M50.093 39.2709C51.5239 39.2709 52.684 38.1108 52.684 36.6799C52.684 35.2489 51.5239 34.0889 50.093 34.0889C48.662 34.0889 47.502 35.2489 47.502 36.6799C47.502 38.1108 48.662 39.2709 50.093 39.2709V39.2709Z" fill="#FF715B"/>
</g>
</g>
</svg>
