<svg width="80" height="80" viewBox="0 0 80 80" fill="none" xmlns="http://www.w3.org/2000/svg">
<g id="icon">
<circle id="Ellipse" cx="40" cy="40" r="40" fill="#EAFAF3"/>
<g id="font">
<path id="Path_211" fill-rule="evenodd" clip-rule="evenodd" d="M19.314 52.2869L31.373 27.2629L43.434 52.2869H40.016L36.949 45.8049H25.796L22.734 52.2869H19.314ZM31.373 34.0229L27.191 42.8769H35.555L31.373 34.0229Z" fill="#2DCA8C"/>
<path id="Path_212" opacity="0.3" fill-rule="evenodd" clip-rule="evenodd" d="M56.1869 52.287V50.542C54.6567 51.8833 52.6804 52.6041 50.6459 52.563C48.2593 52.6004 45.9609 51.6616 44.2831 49.9639C42.6052 48.2662 41.6934 45.957 41.7589 43.571C41.6943 41.1857 42.6063 38.8774 44.2839 37.1804C45.9614 35.4834 48.259 34.5449 50.6449 34.582C52.6794 34.5409 54.6557 35.2617 56.1859 36.603V34.861H59.1859V52.287H56.1869ZM50.7149 49.742C52.907 49.8225 54.982 48.752 56.1869 46.919V40.228C54.982 38.395 52.907 37.3245 50.7149 37.405C49.1082 37.4093 47.5733 38.0711 46.4672 39.2365C45.3612 40.4019 44.7804 41.9693 44.8599 43.574C44.7806 45.1785 45.3616 46.7456 46.4676 47.9108C47.5736 49.076 49.1084 49.7377 50.7149 49.742H50.7149Z" fill="#2DCA8C"/>
</g>
</g>
</svg>
