<svg width="80" height="80" viewBox="0 0 80 80" fill="none" xmlns="http://www.w3.org/2000/svg">
<g id="icon-5">
<circle id="Ellipse-5" cx="40" cy="40" r="40" fill="#E5F1FF"/>
<g id="layout-arrange">
<path id="Path_198" fill-rule="evenodd" clip-rule="evenodd" d="M28.027 25.54H35.319C36.8295 25.54 38.054 26.7645 38.054 28.275V30.098C38.0535 31.6095 36.8285 32.8336 35.318 32.833L28.027 32.833C26.5165 32.833 25.292 31.6085 25.292 30.098V28.275C25.292 26.7645 26.5165 25.54 28.027 25.54ZM44.434 47.416H51.726C53.2365 47.416 54.461 48.6405 54.461 50.151V51.974C54.461 53.4845 53.2365 54.709 51.726 54.709H44.434C42.9235 54.709 41.699 53.4845 41.699 51.974V50.151C41.699 48.6405 42.9235 47.416 44.434 47.416H44.434Z" fill="#377DFF"/>
<path id="Path_199" opacity="0.3" fill-rule="evenodd" clip-rule="evenodd" d="M28.027 36.478H35.319C36.8295 36.478 38.054 37.7025 38.054 39.213V51.974C38.054 53.4845 36.8295 54.709 35.319 54.709H28.027C26.5165 54.709 25.292 53.4845 25.292 51.974V39.213C25.292 37.7025 26.5165 36.478 28.027 36.478L28.027 36.478ZM44.434 25.54H51.726C53.2365 25.54 54.461 26.7645 54.461 28.275V41.04C54.461 42.5505 53.2365 43.775 51.726 43.775H44.434C42.9235 43.775 41.699 42.5505 41.699 41.04V28.275C41.699 26.7645 42.9235 25.54 44.434 25.54H44.434Z" fill="#377DFF"/>
</g>
</g>
</svg>
