<svg width="80" height="80" viewBox="0 0 80 80" fill="none" xmlns="http://www.w3.org/2000/svg">
<g id="icon-6">
<circle id="Ellipse-6" cx="40" cy="40" r="40" fill="#EAFAF3"/>
<g id="select">
<path id="Path_201" opacity="0.3" fill-rule="evenodd" clip-rule="evenodd" d="M52.571 33.1008C49.9907 33.1008 47.899 31.0091 47.899 28.4288C47.899 25.8486 49.9907 23.7568 52.571 23.7568C55.1512 23.7568 57.243 25.8486 57.243 28.4288C57.243 31.0091 55.1512 33.1008 52.571 33.1008H52.571ZM52.571 57.3938C49.9907 57.3938 47.899 55.3021 47.899 52.7218C47.899 50.1416 49.9907 48.0498 52.571 48.0498C55.1512 48.0498 57.243 50.1416 57.243 52.7218C57.243 55.3021 55.1512 57.3938 52.571 57.3938ZM28.278 57.3938C25.6977 57.3938 23.606 55.3021 23.606 52.7218C23.606 50.1416 25.6977 48.0498 28.278 48.0498C30.8582 48.0498 32.95 50.1416 32.95 52.7218C32.95 55.3021 30.8582 57.3938 28.278 57.3938H28.278Z" fill="#2DCA8C"/>
<path id="Path_202" fill-rule="evenodd" clip-rule="evenodd" d="M28.278 33.1008C25.6977 33.1008 23.606 31.0091 23.606 28.4288C23.606 25.8486 25.6977 23.7568 28.278 23.7568C30.8582 23.7568 32.95 25.8486 32.95 28.4288C32.95 31.0091 30.8582 33.1008 28.278 33.1008ZM38.556 25.6258H42.293C43.3081 25.6493 44.1187 26.479 44.1187 27.4943C44.1187 28.5097 43.3081 29.3394 42.293 29.3628H38.556C37.5409 29.3394 36.7302 28.5097 36.7302 27.4943C36.7302 26.479 37.5409 25.6493 38.556 25.6258L38.556 25.6258ZM38.556 51.7878H42.293C43.3081 51.8113 44.1188 52.641 44.1188 53.6563C44.1188 54.6717 43.3081 55.5014 42.293 55.5248H38.556C37.5409 55.5013 36.7302 54.6717 36.7302 53.6563C36.7302 52.641 37.5409 51.8113 38.556 51.7878L38.556 51.7878ZM27.343 36.8378C28.3752 36.8378 29.212 37.6746 29.212 38.7068L29.212 42.4438C29.1885 43.4589 28.3588 44.2696 27.3435 44.2696C26.3281 44.2696 25.4984 43.4589 25.475 42.4438L25.475 38.7068C25.475 37.675 26.3111 36.8384 27.343 36.8378H27.343ZM53.505 36.8378C54.5372 36.8378 55.374 37.6746 55.374 38.7068V42.4438C55.3505 43.4589 54.5208 44.2696 53.5055 44.2696C52.4901 44.2696 51.6604 43.4589 51.637 42.4438V38.7068C51.637 37.6746 52.4737 36.8378 53.506 36.8378H53.505Z" fill="#2DCA8C"/>
</g>
</g>
</svg>
